<svg width="661" height="380" viewBox="0 0 661 380" fill="none" xmlns="http://www.w3.org/2000/svg">
<g clip-path="url(#clip0)">
<path d="M143.22 337.309C162.206 337.309 177.596 321.91 177.596 302.914C177.596 283.919 162.206 268.52 143.22 268.52C124.235 268.52 108.845 283.919 108.845 302.914C108.845 321.91 124.235 337.309 143.22 337.309Z" fill="#FBFCEE"/>
<path d="M148.81 332.275C167.795 332.275 183.186 316.877 183.186 297.881C183.186 278.886 167.795 263.487 148.81 263.487C129.825 263.487 114.434 278.886 114.434 297.881C114.434 316.877 129.825 332.275 148.81 332.275Z" fill="#8FB339"/>
<path d="M601.815 259.825H176.494V260.986H601.815V259.825Z" fill="#4B5842"/>
<path d="M396.768 10.8287H245.806V7.71558H177.354V10.8287H25.7689C24.4279 10.8287 23.1 11.093 21.8611 11.6064C20.6222 12.1199 19.4965 12.8725 18.5482 13.8212C17.6 14.7699 16.8478 15.8962 16.3347 17.1358C15.8215 18.3754 15.5574 19.704 15.5574 21.0457V227.871C15.5574 230.58 16.6332 233.179 18.5482 235.095C20.4633 237.011 23.0606 238.088 25.7689 238.088H396.768C399.477 238.088 402.074 237.011 403.989 235.095C405.904 233.179 406.98 230.58 406.98 227.871V21.0457C406.98 19.704 406.716 18.3754 406.203 17.1358C405.69 15.8962 404.937 14.7699 403.989 13.8212C403.041 12.8725 401.915 12.1199 400.676 11.6064C399.437 11.093 398.109 10.8287 396.768 10.8287Z" fill="#4B5842"/>
<path d="M393.289 28.8849H29.2478V234.352H393.289V28.8849Z" fill="#8FB339"/>
<path d="M210.957 23.2812C213.019 23.2812 214.691 21.6087 214.691 19.5455C214.691 17.4823 213.019 15.8097 210.957 15.8097C208.895 15.8097 207.224 17.4823 207.224 19.5455C207.224 21.6087 208.895 23.2812 210.957 23.2812Z" fill="#8FB339"/>
<path opacity="0.1" d="M289.18 234.352H29.2478V28.885L289.18 234.352Z" fill="black"/>
<path d="M86.2094 218.976C105.535 218.976 121.202 203.301 121.202 183.965C121.202 164.629 105.535 148.953 86.2094 148.953C66.8834 148.953 51.2166 164.629 51.2166 183.965C51.2166 203.301 66.8834 218.976 86.2094 218.976Z" fill="#FBFCEE"/>
<path d="M329.904 139.695H295.898V146.804H329.904V139.695Z" fill="#4B5842"/>
<path d="M371.015 84.3428H254.787V87.3897H371.015V84.3428Z" fill="#4B5842"/>
<path d="M371.015 93.9913H254.787V97.0382H371.015V93.9913Z" fill="#4B5842"/>
<path d="M371.015 103.64H254.787V106.687H371.015V103.64Z" fill="#4B5842"/>
<path d="M371.015 113.288H254.787V116.335H371.015V113.288Z" fill="#4B5842"/>
<path d="M371.015 122.937H254.787V125.984H371.015V122.937Z" fill="#4B5842"/>
<path d="M371.015 33.0533H356.804V47.2722H371.015V33.0533Z" fill="#FBFCEE"/>
<path d="M377.613 53.8738H360.356V36.608H377.613V53.8738ZM361.107 53.1232H376.863V37.3587H361.107V53.1232Z" fill="#4B5842"/>
<path d="M417.201 230.616H381.673V228.055C381.673 227.988 381.66 227.922 381.635 227.86C381.609 227.799 381.572 227.743 381.525 227.696C381.478 227.649 381.422 227.611 381.36 227.586C381.298 227.56 381.232 227.547 381.166 227.547H368.985C368.918 227.547 368.852 227.56 368.79 227.586C368.729 227.611 368.673 227.649 368.626 227.696C368.579 227.743 368.541 227.799 368.516 227.86C368.49 227.922 368.477 227.988 368.477 228.055V230.616H360.864V228.055C360.864 227.988 360.851 227.922 360.825 227.86C360.8 227.799 360.762 227.743 360.715 227.696C360.668 227.649 360.612 227.611 360.551 227.586C360.489 227.56 360.423 227.547 360.356 227.547H348.175C348.109 227.547 348.043 227.56 347.981 227.586C347.92 227.611 347.864 227.649 347.816 227.696C347.769 227.743 347.732 227.799 347.706 227.86C347.681 227.922 347.668 227.988 347.668 228.055V230.616H340.055V228.055C340.055 227.988 340.042 227.922 340.016 227.86C339.991 227.799 339.953 227.743 339.906 227.696C339.859 227.649 339.803 227.611 339.741 227.586C339.68 227.56 339.614 227.547 339.547 227.547H327.366C327.299 227.547 327.233 227.56 327.172 227.586C327.11 227.611 327.054 227.649 327.007 227.696C326.96 227.743 326.923 227.799 326.897 227.86C326.872 227.922 326.859 227.988 326.859 228.055V230.616H319.245V228.055C319.245 227.988 319.232 227.922 319.207 227.86C319.181 227.799 319.144 227.743 319.097 227.696C319.05 227.649 318.994 227.611 318.932 227.586C318.87 227.56 318.804 227.547 318.738 227.547H306.557C306.49 227.547 306.424 227.56 306.362 227.586C306.301 227.611 306.245 227.649 306.198 227.696C306.151 227.743 306.113 227.799 306.088 227.86C306.062 227.922 306.049 227.988 306.049 228.055V230.616H298.436V228.055C298.436 227.988 298.423 227.922 298.397 227.86C298.372 227.799 298.335 227.743 298.287 227.696C298.24 227.649 298.184 227.611 298.123 227.586C298.061 227.56 297.995 227.547 297.928 227.547H285.747C285.681 227.547 285.615 227.56 285.553 227.586C285.492 227.611 285.436 227.649 285.389 227.696C285.341 227.743 285.304 227.799 285.279 227.86C285.253 227.922 285.24 227.988 285.24 228.055V230.616H277.627V228.055C277.627 227.988 277.614 227.922 277.588 227.86C277.563 227.799 277.525 227.743 277.478 227.696C277.431 227.649 277.375 227.611 277.313 227.586C277.252 227.56 277.186 227.547 277.119 227.547H264.938C264.871 227.547 264.805 227.56 264.744 227.586C264.682 227.611 264.626 227.649 264.579 227.696C264.532 227.743 264.495 227.799 264.469 227.86C264.444 227.922 264.431 227.988 264.431 228.055V230.616H256.817V228.055C256.817 227.988 256.804 227.922 256.779 227.86C256.753 227.799 256.716 227.743 256.669 227.696C256.622 227.649 256.566 227.611 256.504 227.586C256.443 227.56 256.376 227.547 256.31 227.547H160.892C160.825 227.547 160.759 227.56 160.697 227.586C160.636 227.611 160.58 227.649 160.533 227.696C160.486 227.743 160.448 227.799 160.423 227.86C160.397 227.922 160.384 227.988 160.384 228.055V230.616H152.771V228.055C152.771 227.988 152.758 227.922 152.732 227.86C152.707 227.799 152.669 227.743 152.622 227.696C152.575 227.649 152.519 227.611 152.458 227.586C152.396 227.56 152.33 227.547 152.263 227.547H140.082C140.016 227.547 139.95 227.56 139.888 227.586C139.826 227.611 139.77 227.649 139.723 227.696C139.676 227.743 139.639 227.799 139.613 227.86C139.588 227.922 139.575 227.988 139.575 228.055V230.616H131.962V228.055C131.962 227.988 131.948 227.922 131.923 227.86C131.897 227.799 131.86 227.743 131.813 227.696C131.766 227.649 131.71 227.611 131.648 227.586C131.587 227.56 131.521 227.547 131.454 227.547H119.273C119.206 227.547 119.14 227.56 119.079 227.586C119.017 227.611 118.961 227.649 118.914 227.696C118.867 227.743 118.829 227.799 118.804 227.86C118.778 227.922 118.765 227.988 118.765 228.055V230.616H111.152V228.055C111.152 227.988 111.139 227.922 111.114 227.86C111.088 227.799 111.051 227.743 111.004 227.696C110.956 227.649 110.9 227.611 110.839 227.586C110.777 227.56 110.711 227.547 110.645 227.547H98.4636C98.3969 227.547 98.3309 227.56 98.2694 227.586C98.2078 227.611 98.1518 227.649 98.1047 227.696C98.0576 227.743 98.0202 227.799 97.9947 227.86C97.9692 227.922 97.956 227.988 97.956 228.055V230.616H90.3429V228.055C90.3429 227.988 90.3298 227.922 90.3043 227.86C90.2788 227.799 90.2414 227.743 90.1943 227.696C90.1471 227.649 90.0912 227.611 90.0296 227.586C89.968 227.56 89.902 227.547 89.8354 227.547H77.6543C77.5876 227.547 77.5216 227.56 77.46 227.586C77.3985 227.611 77.3425 227.649 77.2954 227.696C77.2482 227.743 77.2109 227.799 77.1854 227.86C77.1599 227.922 77.1467 227.988 77.1467 228.055V230.616H69.5336V228.055C69.5336 227.988 69.5204 227.922 69.4949 227.86C69.4694 227.799 69.432 227.743 69.3849 227.696C69.3378 227.649 69.2818 227.611 69.2203 227.586C69.1587 227.56 69.0927 227.547 69.026 227.547H56.845C56.7783 227.547 56.7123 227.56 56.6507 227.586C56.5891 227.611 56.5332 227.649 56.4861 227.696C56.4389 227.743 56.4016 227.799 56.376 227.86C56.3505 227.922 56.3374 227.988 56.3374 228.055V230.616H48.7243V228.055C48.7243 227.988 48.7111 227.922 48.6856 227.86C48.6601 227.799 48.6227 227.743 48.5756 227.696C48.5285 227.649 48.4725 227.611 48.4109 227.586C48.3494 227.56 48.2834 227.547 48.2167 227.547H36.0356C35.969 227.547 35.903 227.56 35.8414 227.586C35.7798 227.611 35.7239 227.649 35.6768 227.696C35.6296 227.743 35.5922 227.799 35.5667 227.86C35.5412 227.922 35.5281 227.988 35.5281 228.055V230.616H12.1811C8.95045 230.616 5.85215 231.9 3.56775 234.186C1.28336 236.471 3.07781e-06 239.571 0 242.804V248.315C9.23344e-06 251.547 1.28337 254.647 3.56776 256.932C5.85216 259.218 8.95045 260.502 12.1811 260.502H417.201C420.432 260.502 423.53 259.218 425.815 256.932C428.099 254.647 429.382 251.547 429.382 248.315V242.804C429.382 239.571 428.099 236.471 425.815 234.186C423.53 231.9 420.432 230.616 417.201 230.616Z" fill="#4B5842"/>
<path d="M94.6796 205.833C85.9577 205.833 77.4316 203.245 70.1796 198.397C62.9276 193.549 57.2754 186.658 53.9376 178.595C50.5999 170.533 49.7266 161.661 51.4282 153.103C53.1297 144.544 57.3297 136.682 63.497 130.511C69.6644 124.341 77.522 120.138 86.0763 118.436C94.6306 116.733 103.497 117.607 111.555 120.947C119.613 124.286 126.501 129.941 131.346 137.197C136.192 144.453 138.778 152.984 138.778 161.71C138.765 173.408 134.115 184.623 125.847 192.895C117.58 201.167 106.371 205.82 94.6796 205.833ZM94.6796 118.749C86.1872 118.749 77.8855 121.269 70.8244 125.989C63.7632 130.71 58.2597 137.42 55.0098 145.27C51.7599 153.12 50.9096 161.758 52.5664 170.092C54.2232 178.425 58.3126 186.08 64.3176 192.089C70.3227 198.097 77.9735 202.188 86.3027 203.846C94.6319 205.504 103.265 204.653 111.111 201.401C118.957 198.15 125.663 192.643 130.381 185.578C135.1 178.513 137.618 170.207 137.618 161.71C137.605 150.32 133.077 139.4 125.027 131.346C116.978 123.292 106.064 118.762 94.6796 118.749Z" fill="#4B5842"/>
<path d="M488.086 18.8932H340.124V20.0543H488.086V18.8932Z" fill="#4B5842"/>
<path d="M661 325.428H235.679V326.589H661V325.428Z" fill="#4B5842"/>
<path d="M259.76 378.839H111.797V380H259.76V378.839Z" fill="#4B5842"/>
<path d="M289.543 319.307H273.296V335.562H289.543V319.307Z" fill="#8FB339"/>
<path d="M299.407 326.273H279.679V306.534H299.407V326.273ZM280.536 325.415H298.549V307.393H280.536V325.415Z" fill="#4B5842"/>
<path d="M478.123 12.7722H461.876V29.0278H478.123V12.7722Z" fill="#8FB339"/>
<path d="M487.987 19.739H468.259V0H487.987V19.739ZM469.117 18.8807H487.13V0.858217H469.117V18.8807Z" fill="#4B5842"/>
<path d="M641.753 319.307H625.506V335.562H641.753V319.307Z" fill="#8FB339"/>
<path d="M651.617 326.273H631.888V306.534H651.617V326.273ZM632.746 325.415H650.759V307.393H632.746V325.415Z" fill="#4B5842"/>
<path d="M613.42 134.665H612.04V96.8351C612.04 93.9598 611.474 91.1126 610.374 88.4562C609.274 85.7998 607.662 83.3861 605.63 81.3529C603.598 79.3198 601.186 77.707 598.531 76.6067C595.876 75.5064 593.03 74.9401 590.157 74.9401H510.052C507.178 74.9401 504.332 75.5064 501.677 76.6067C499.022 77.707 496.61 79.3198 494.578 81.3529C492.546 83.3861 490.934 85.7998 489.834 88.4562C488.734 91.1126 488.168 93.9598 488.168 96.8351V304.374C488.168 307.249 488.734 310.096 489.834 312.752C490.934 315.409 492.546 317.823 494.578 319.856C496.61 321.889 499.022 323.502 501.677 324.602C504.332 325.702 507.178 326.269 510.052 326.269H590.157C593.03 326.269 595.876 325.702 598.531 324.602C601.186 323.502 603.598 321.889 605.63 319.856C607.663 317.823 609.274 315.409 610.374 312.752C611.474 310.096 612.04 307.249 612.04 304.374V161.593H613.42V134.665Z" fill="#4B5842"/>
<path d="M607.38 98.1219V305.358C607.381 309.694 605.659 313.854 602.595 316.921C599.531 319.988 595.374 321.711 591.04 321.712H510.548C506.214 321.711 502.057 319.988 498.993 316.921C495.929 313.854 494.208 309.694 494.208 305.358V98.1219C494.209 93.7862 495.931 89.6281 498.995 86.5623C502.059 83.4965 506.215 81.7739 510.548 81.7734H520.314C519.833 82.9529 519.65 84.2325 519.78 85.4996C519.91 86.7666 520.35 87.9822 521.06 89.0393C521.77 90.0963 522.729 90.9624 523.853 91.5612C524.977 92.16 526.23 92.4732 527.503 92.4731H573.395C574.668 92.4732 575.921 92.16 577.045 91.5612C578.169 90.9624 579.128 90.0964 579.838 89.0393C580.548 87.9822 580.988 86.7666 581.118 85.4996C581.248 84.2325 581.065 82.9529 580.584 81.7734H591.04C595.373 81.7739 599.529 83.4965 602.593 86.5623C605.658 89.6281 607.379 93.7862 607.38 98.1219Z" fill="#8FB339"/>
<path d="M562.783 218.416H538.805V225.525H562.783V218.416Z" fill="#4B5842"/>
<path d="M591.771 163.064H509.817V166.111H591.771V163.064Z" fill="#4B5842"/>
<path d="M591.771 172.713H509.817V175.759H591.771V172.713Z" fill="#4B5842"/>
<path d="M591.771 182.361H509.817V185.408H591.771V182.361Z" fill="#4B5842"/>
<path d="M591.771 192.01H509.817V195.056H591.771V192.01Z" fill="#4B5842"/>
<path d="M591.771 201.658H509.817V204.705H591.771V201.658Z" fill="#4B5842"/>
<path d="M553.657 122.601H539.446V136.82H553.657V122.601Z" fill="#FBFCEE"/>
<path d="M544.886 126.157V143.423H562.142V126.157H544.886ZM561.394 142.674H545.634V126.906H561.394V142.674Z" fill="#4B5842"/>
<path opacity="0.1" d="M607.38 283.227V305.358C607.381 309.694 605.659 313.854 602.595 316.921C599.531 319.988 595.374 321.711 591.04 321.712H510.548C506.214 321.711 502.057 319.988 498.993 316.921C495.929 313.854 494.208 309.694 494.208 305.358V193.769L562.022 247.372L563.182 248.289L575.797 258.257L576.975 259.192L607.38 283.227Z" fill="black"/>
<path d="M543.831 314.996C557.889 314.996 569.285 303.593 569.285 289.528C569.285 275.463 557.889 264.06 543.831 264.06C529.773 264.06 518.377 275.463 518.377 289.528C518.377 303.593 529.773 314.996 543.831 314.996Z" fill="#FBFCEE"/>
<path d="M185.778 380C175.794 380 166.034 377.038 157.732 371.488C149.431 365.938 142.96 358.05 139.14 348.82C135.319 339.591 134.319 329.436 136.267 319.638C138.215 309.84 143.023 300.84 150.083 293.777C157.143 286.713 166.137 281.902 175.93 279.954C185.722 278.005 195.872 279.005 205.097 282.828C214.321 286.651 222.205 293.124 227.752 301.431C233.299 309.737 236.26 319.502 236.26 329.492C236.245 342.883 230.921 355.721 221.457 365.19C211.994 374.659 199.162 379.985 185.778 380ZM185.778 280.144C176.024 280.144 166.488 283.038 158.377 288.461C150.266 293.883 143.945 301.59 140.212 310.607C136.479 319.624 135.502 329.546 137.405 339.119C139.308 348.691 144.006 357.484 150.903 364.385C157.801 371.287 166.589 375.987 176.156 377.891C185.724 379.795 195.64 378.818 204.653 375.083C213.665 371.348 221.368 365.023 226.787 356.907C232.207 348.792 235.099 339.252 235.099 329.492C235.085 316.408 229.883 303.865 220.637 294.614C211.391 285.363 198.855 280.159 185.778 280.144Z" fill="#4B5842"/>
<path d="M551.334 309.172C545.022 309.172 538.852 307.299 533.603 303.791C528.355 300.282 524.265 295.295 521.849 289.461C519.434 283.626 518.802 277.206 520.033 271.012C521.265 264.818 524.304 259.129 528.767 254.663C533.231 250.197 538.917 247.156 545.108 245.924C551.298 244.692 557.715 245.325 563.547 247.741C569.378 250.158 574.362 254.251 577.869 259.502C581.376 264.753 583.247 270.926 583.247 277.241C583.238 285.707 579.872 293.823 573.889 299.809C567.907 305.795 559.795 309.162 551.334 309.172ZM551.334 246.472C545.251 246.472 539.306 248.276 534.248 251.657C529.191 255.038 525.249 259.844 522.922 265.466C520.594 271.089 519.985 277.275 521.172 283.244C522.358 289.213 525.287 294.696 529.588 298.999C533.889 303.302 539.369 306.232 545.334 307.42C551.3 308.607 557.483 307.998 563.102 305.669C568.722 303.34 573.525 299.396 576.904 294.336C580.283 289.276 582.087 283.327 582.087 277.241C582.078 269.084 578.835 261.263 573.069 255.494C567.304 249.726 559.487 246.481 551.334 246.472Z" fill="#4B5842"/>
</g>
<defs>
<clipPath id="clip0">
<rect width="661" height="380" fill="white"/>
</clipPath>
</defs>
</svg>
